# xmcd
#
# Track frame offsets:
#	150
#	17580
#	31412
#	48995
#	63515
#	77737
#	96787
#	111950
#	127032
#	151275
#	168707
#	179910
#	192530
#	205347
#
# Disc length: 2955
#
# Revision: 1
# Processed by: cddbd v1.5.1PL0 Copyright (c) Steve Scherf et al.
# Submitted via: VisiTrax 2.9.3.171 - For more info visit www.synapsa.com
# Normalized: r0:DSETVAR1
#
DISCID=c90b890e
DTITLE=Various Artist - Mr Music Country 8-00
DYEAR=1900
DGENRE=
TTITLE0=Matt King - From Your Knees
TTITLE1=Sarah Ray - The Street That's Paved With Gold
TTITLE2=David Ball - Going Some Place To Forget
TTITLE3=Red Steagall - Red River Rose
TTITLE4=Patty Booker with Jann Browne - River Of Love
TTITLE5=Larry Joe Taylor - Men Of Steel
TTITLE6=Ray Price - Back To The Wall
TTITLE7=Paul Brandt - Let's Live It Up
TTITLE8=Montana Rose with Claudia Williams - Old California
TTITLE9=Clinton Gregory - Nobody's Darling (But Mine)
TTITLE10=Dawnett Faucett - Heart, Heart
TTITLE11=Gene Watson - Hold That Thought
TTITLE12=Michael Peterson - Sure Feels Real Good
TTITLE13=Jack Greene - Mr. D.J.
EXTD=
EXTT0=
EXTT1=
EXTT2=
EXTT3=
EXTT4=
EXTT5=
EXTT6=
EXTT7=
EXTT8=
EXTT9=
EXTT10=
EXTT11=
EXTT12=
EXTT13=
PLAYORDER=
